<svg width="494" height="64" viewBox="0 0 494 64" fill="none" xmlns="http://www.w3.org/2000/svg">
<path d="M10.0665 61.6563C14.3541 63.2789 18.9212 64 23.7681 64C28.8945 64 33.2753 63.2789 36.8172 61.7465C40.3591 60.3042 42.969 58.231 44.6467 55.707C46.3245 53.1831 47.2565 50.3887 47.2565 47.3239C47.2565 43.6282 46.2312 40.6535 44.1806 38.4901C42.1301 36.3268 39.7067 34.6141 36.9104 33.5324C34.021 32.4507 30.1994 31.369 25.4458 30.1972C21.1583 29.2056 17.7096 28.2141 15.2862 27.3127C12.7695 26.4113 10.7189 25.1493 9.0412 23.4366C7.36345 21.8141 6.52458 19.5606 6.52458 16.6761C6.52458 12.9803 8.01592 9.91549 11.185 7.57183C14.2609 5.22816 18.828 4.05634 24.8866 4.05634C27.8692 4.05634 30.9451 4.50704 34.1142 5.40845C37.2832 6.30986 40.1727 7.66197 42.7825 9.37465L44.5535 5.67887C41.9437 3.9662 38.961 2.61408 35.5123 1.53239C31.9704 0.540844 28.4285 0 24.8866 0C19.6669 0 15.3793 0.811267 11.9306 2.25352C8.48195 3.78591 5.96534 5.85915 4.28759 8.3831C2.60984 10.907 1.77097 13.7014 1.77097 16.7662C1.77097 20.5521 2.70303 23.6169 4.75361 25.8704C6.80419 28.1239 9.22759 29.7465 12.117 30.8282C15.0065 31.9099 18.828 33.0817 23.6749 34.1634C27.8692 35.1549 31.2247 36.0563 33.7413 36.9577C36.1648 37.8592 38.3085 39.2113 39.9863 40.8338C41.664 42.5465 42.5029 44.8 42.5029 47.5944C42.5029 51.2901 40.9184 54.2648 37.7493 56.5183C34.5802 58.862 29.8266 59.9437 23.6749 59.9437C19.3873 59.9437 15.2861 59.2225 11.3714 57.7803C7.45665 56.338 4.38079 54.3549 2.14379 52.0113L0 55.4366C2.42341 57.9606 5.77891 60.0338 10.0665 61.6563Z" fill="#3241FF"/>
<path d="M63.4165 0.450684V63.5493H68.1701V0.450684H63.4165Z" fill="#323FE5"/>
<path d="M152.609 63.5493H157.27L157.177 0.450684H153.262L124.088 49.2169L94.9135 0.450684H90.9055V63.5493H95.5659V9.73519L122.876 55.1662H125.206L152.516 9.55491L152.609 63.5493Z" fill="#313DCB"/>
<path d="M222.616 6.12956C217.955 2.34365 211.524 0.450684 203.322 0.450684H179.927V4.59716H203.322C210.219 4.59716 215.532 6.12956 219.26 9.10421C222.895 12.0789 224.76 16.3155 224.76 21.7239C224.76 27.2225 222.895 31.4591 219.26 34.3436C215.532 37.3183 210.219 38.7605 203.322 38.7605H179.927V63.5493H184.68V42.907H203.322C211.524 42.907 217.955 41.1042 222.616 37.3183C227.276 33.5324 229.606 28.3943 229.606 21.7239C229.606 15.1436 227.276 9.91548 222.616 6.12956Z" fill="#313AB1"/>
<path d="M245.646 0.450684V63.5493H287.962V59.4028H250.399V0.450684H245.646Z" fill="#313897"/>
<path d="M300.26 0.450684V63.5493H305.013V0.450684H300.26Z" fill="#30367D"/>
<path d="M327.749 0.450684V4.59716H369.506V0.450684H327.749ZM327.749 63.5493H332.502V35.6958H369.506V31.5493H327.749V63.5493Z" fill="#303463"/>
<path d="M406.683 41.8253L432.968 0.450684H428.028L404.446 37.5887L380.864 0.450684H375.645L401.929 41.8253V63.5493H406.683V41.8253Z" fill="#2F3149"/>
<path d="M477.561 41.4648C482.408 40.1127 486.229 37.769 488.839 34.3436C491.449 30.9183 492.847 26.7718 492.847 21.7239C492.847 15.1436 490.517 9.91548 485.856 6.12956C481.196 2.34365 474.765 0.450684 466.562 0.450684H443.167V4.59716H466.562C473.46 4.59716 478.772 6.12956 482.501 9.10421C486.136 12.0789 488 16.3155 488 21.7239C488 27.2225 486.136 31.4591 482.501 34.4338C478.772 37.4084 473.46 38.8507 466.562 38.8507H443.167V63.5493H447.921V42.907H466.562C468.426 42.907 470.57 42.8169 472.9 42.4563L488.466 63.5493H493.872L477.561 41.4648Z" fill="#2F2F2F"/>
</svg>
