<svg width="635" height="65" viewBox="0 0 635 65" fill="none" xmlns="http://www.w3.org/2000/svg">
<path d="M13.7694 24.7722V63.9851H0.700684V1.19324H12.2792L41.3225 40.7681V1.19324H54.3923V63.9851H42.5632L13.7694 24.7722Z" fill="#BCB9B2"/>
<path d="M63.2893 63.9857H105.326V52.2314H63.2893V63.9857ZM63.2893 38.7074H105.326V26.7124H63.2893V38.7074ZM63.2893 1.19327V13.1883H105.326V1.19327H63.2893Z" fill="#BCB9B2"/>
<path d="M127.644 62.4724C124.589 61.2245 121.842 59.4285 119.486 57.151C117.131 54.8724 115.282 52.2156 113.984 49.2612C112.644 46.1943 111.961 42.9419 111.961 39.5928V1.19324H125.03V39.5928C125.03 46.315 130.691 51.7892 137.642 51.7892C144.593 51.7892 150.252 46.315 150.252 39.5928V1.19324H163.322V39.5928C163.322 42.9419 162.639 46.1943 161.299 49.2612C160.008 52.2156 158.152 54.8725 155.796 57.151C153.44 59.4285 150.693 61.2158 147.638 62.4724C144.467 63.7684 141.104 64.4278 137.642 64.4278C134.178 64.4278 130.816 63.7684 127.644 62.4724Z" fill="#BCB9B2"/>
<path d="M222.041 63.9857H206.251L190.793 42.4348V30.1744H193.291C197.227 30.1744 200.174 29.337 202.039 27.6786C203.637 26.2538 204.445 24.2007 204.445 21.5602C204.445 18.8072 203.613 16.7142 201.972 15.3457C200.291 13.9367 197.627 13.1883 194.289 13.1883H184.467V63.9857H171.397V1.19327H195.288C198.942 1.19327 202.239 1.7004 205.102 2.69831C207.924 3.68856 210.338 5.17014 212.277 7.09388C215.865 10.6602 217.763 15.7158 217.763 21.7212C217.763 27.107 216.223 31.5588 213.185 34.956C211.07 37.3148 208.282 39.1179 204.861 40.3336L222.041 63.9857Z" fill="#BCB9B2"/>
<path d="M254.167 1.19327H242.905L218.307 63.9857H232.141L248.516 20.4575L265.031 63.9857H278.865L254.167 1.19327Z" fill="#BCB9B2"/>
<path d="M248.63 63.9857L238.295 48.513H258.876L248.63 63.9857Z" fill="#7E7D78"/>
<path d="M281.131 5.21815L294.2 1.19324V51.9907H323.418V63.9851H281.131V5.21815Z" fill="#BCB9B2"/>
<path d="M324.392 54.7195L322.635 52.8995L331.234 42.95L333.456 45.6467C335.196 47.7561 337.468 49.4866 340.017 50.646C342.413 51.7406 345.002 52.3121 347.499 52.3121C350.447 52.3121 352.96 51.6843 354.575 50.5494C356.032 49.527 356.74 48.1584 356.74 46.3553C356.74 44.3906 356.115 43.1754 354.526 42.0241C352.693 40.7036 349.73 39.6249 346.292 38.3694C346.001 38.2646 345.702 38.1521 345.394 38.0391C340.674 36.3408 336.137 34.5939 332.499 31.7924C330.385 30.1662 328.82 28.3707 327.713 26.3099C326.481 24.0237 325.857 21.4236 325.857 18.5817C325.857 13.6309 328.071 9.05028 332.083 5.68483C335.979 2.42472 341.214 0.629822 346.834 0.629822C354.092 0.629822 361.176 3.15733 367.311 7.9312L369.526 9.66225L361.542 19.7089L359.212 17.8573C355.108 14.5808 350.596 12.7051 346.834 12.7051C343.338 12.7051 339.242 14.1703 339.175 18.3C339.151 20.1435 340.066 21.1496 341.456 22.0918C343.446 23.444 346.608 24.6111 349.956 25.8508L349.989 25.859C350.513 26.0605 351.037 26.2619 351.562 26.4546C356.298 28.25 360.777 29.9407 364.173 32.6456C368.185 35.8495 370.141 40.0676 370.141 45.5501C370.141 48.5209 369.484 51.282 368.185 53.7609C366.961 56.0799 365.213 58.1008 362.966 59.7669C358.871 62.7934 353.352 64.4682 347.417 64.4682C338.643 64.4682 330.468 61.0072 324.392 54.7195Z" fill="#BCB9B2"/>
<path d="M411.498 1.19327L388.815 27.695V1.19327H375.746V63.9857H388.815V46.3467L428.487 1.19327H411.498Z" fill="#BCB9B2"/>
<path d="M416.825 48.513H400.595L412.223 63.9857H428.514L416.825 48.513Z" fill="#7E7D78"/>
<path d="M429.556 63.9857H471.593V52.2314H429.556V63.9857ZM429.556 38.7074H471.593V26.7124H429.556V38.7074ZM429.556 1.19327V13.1883H471.593V1.19327H429.556Z" fill="#BCB9B2"/>
<path d="M491.797 13.1883H474.149V1.19327H522.763V13.1883H504.865V63.9857H491.797V13.1883Z" fill="#BCB9B2"/>
<path d="M540.092 62.0294C536.155 60.419 532.617 58.1088 529.579 55.1707C526.54 52.2327 524.16 48.811 522.487 45.0028C520.764 41.0587 519.881 36.864 519.881 32.5493C519.881 28.2345 520.755 24.0404 522.487 20.0957C524.152 16.2875 526.54 12.8664 529.579 9.92782C532.617 6.9898 536.155 4.6872 540.092 3.06916C544.172 1.39489 548.508 0.549286 552.97 0.549286C564.024 0.549286 574.305 5.85487 580.473 14.7503L569.618 21.7864C565.889 16.4005 559.663 13.1885 552.97 13.1885C547.626 13.1885 542.598 15.2012 538.81 18.856C535.023 22.5108 532.95 27.3813 532.95 32.5493C532.95 37.7179 535.031 42.5802 538.81 46.2431C542.589 49.8985 547.617 51.9096 552.97 51.9096C559.629 51.9096 565.84 48.715 569.576 43.3695L580.406 50.4444C574.238 59.277 563.983 64.5493 552.97 64.5493C548.508 64.5493 544.172 63.7042 540.092 62.0294Z" fill="#BCB9B2"/>
<path d="M620.983 39.9957H595.927V63.9857H582.858V1.19327H595.927V28.0007H620.983V1.19327H634.052V63.9857H620.983V39.9957Z" fill="#BCB9B2"/>
</svg>
